<?xml version="1.0" standalone="no"?>
<!DOCTYPE svg PUBLIC "-//W3C//DTD SVG 20010904//EN"
 "http://www.w3.org/TR/2001/REC-SVG-20010904/DTD/svg10.dtd">
<svg version="1.0" xmlns="http://www.w3.org/2000/svg"
 width="500.000000pt" height="500.000000pt" viewBox="0 0 500.000000 500.000000"
 preserveAspectRatio="xMidYMid meet">

<g transform="translate(0.000000,500.000000) scale(0.100000,-0.100000)"
fill="#000000" stroke="none">
<path d="M1969 3156 c-56 -20 -96 -53 -126 -104 l-28 -47 0 -580 0 -580 23
-47 c25 -51 75 -94 131 -114 56 -20 1123 -20 1180 1 55 19 104 60 133 109 l23
41 0 586 0 586 -30 49 c-19 30 -49 60 -79 79 l-49 30 -571 2 c-450 2 -579 0
-607 -11z m1069 -398 c3 -26 1 -28 -36 -28 -47 0 -51 3 -44 36 4 22 9 25 41
22 31 -3 36 -7 39 -30z m130 -115 l3 -143 -46 0 -45 0 0 138 c0 76 3 142 7
146 4 4 23 6 43 4 l35 -3 3 -142z m-974 106 c34 -27 36 -82 4 -116 l-22 -23
27 -55 27 -55 -50 0 c-49 0 -50 0 -72 48 -13 26 -30 47 -38 47 -11 0 -16 -13
-18 -47 l-3 -48 -40 0 -39 0 0 135 0 135 99 0 c84 0 102 -3 125 -21z m416 -9
c0 -25 4 -30 25 -30 21 0 25 -5 25 -30 0 -25 -4 -30 -25 -30 -22 0 -25 -4 -25
-34 0 -47 9 -66 31 -66 13 0 19 -7 19 -24 0 -29 -43 -41 -89 -25 -32 11 -41
32 -41 100 0 32 -5 49 -15 53 -22 8 -19 47 4 53 12 3 23 17 26 34 5 24 12 29
36 29 26 0 29 -4 29 -30z m-159 -59 c19 -20 29 -40 29 -60 l0 -31 -76 0 c-66
0 -75 -2 -72 -17 4 -23 51 -29 68 -9 7 9 28 16 46 16 26 0 34 -4 34 -18 0 -46
-83 -80 -150 -62 -58 16 -80 44 -80 103 0 40 5 53 29 78 26 25 37 29 86 29 49
0 60 -4 86 -29z m412 18 c32 -17 37 -28 37 -91 0 -45 3 -58 15 -58 9 0 15 -9
15 -24 0 -30 -40 -42 -79 -23 -22 11 -32 11 -56 0 -31 -13 -80 -8 -102 9 -7 6
-13 25 -13 44 0 41 27 62 92 70 26 4 48 11 48 16 0 15 -32 22 -51 10 -23 -15
-76 -16 -84 -2 -3 5 5 21 19 35 21 21 35 25 81 25 31 0 66 -5 78 -11z m175
-96 l3 -103 -46 0 -46 0 5 103 c2 56 5 103 5 105 1 2 18 2 39 0 l37 -3 3 -102z
m-608 -203 c11 -11 20 -24 20 -30 0 -6 54 -10 141 -10 77 0 149 -5 160 -10 12
-7 19 -21 19 -40 0 -43 -39 -182 -56 -200 -11 -11 -45 -16 -124 -20 -61 -3
-111 -9 -113 -15 -1 -6 41 -12 103 -15 84 -4 105 -8 105 -20 0 -23 -216 -27
-239 -5 -20 20 -21 59 -2 74 11 10 9 31 -13 139 -26 123 -27 127 -54 130 -25
3 -35 20 -20 35 13 14 54 6 73 -13z m-186 -65 c21 -22 21 -208 0 -230 -12 -12
-41 -15 -130 -15 l-114 0 0 25 0 25 105 0 105 0 0 25 0 25 -105 0 -105 0 0 30
0 30 105 0 105 0 0 25 0 25 -105 0 -105 0 0 25 0 25 114 0 c89 0 118 -3 130
-15z m860 -1 c12 -12 16 -38 16 -114 0 -129 -1 -130 -127 -130 -130 0 -133 3
-133 128 0 129 3 132 131 132 75 0 101 -4 113 -16z"/>
<path d="M2057 2704 c-4 -4 -7 -16 -7 -26 0 -16 6 -19 38 -16 29 2 37 7 37 23
0 15 -8 21 -30 23 -17 2 -34 0 -38 -4z"/>
<path d="M2337 2654 c-15 -16 -5 -24 29 -24 24 0 34 4 32 13 -5 13 -50 22 -61
11z"/>
<path d="M2773 2583 c-7 -2 -13 -11 -13 -19 0 -22 54 -14 58 9 3 17 -17 22
-45 10z"/>
<path d="M2461 2313 c0 -5 8 -44 18 -88 l17 -80 96 -3 95 -3 21 79 c12 44 22
84 22 91 0 8 -41 11 -135 11 -74 0 -135 -3 -134 -7z"/>
<path d="M2914 2286 c-3 -7 -4 -42 -2 -77 l3 -64 78 -3 77 -3 0 81 0 80 -75 0
c-54 0 -77 -4 -81 -14z m106 -66 c0 -25 -4 -30 -25 -30 -27 0 -41 20 -31 45 3
8 17 15 31 15 21 0 25 -5 25 -30z"/>
</g>
</svg>
