<?xml version="1.0" standalone="no"?>
<!DOCTYPE svg PUBLIC "-//W3C//DTD SVG 20010904//EN"
 "http://www.w3.org/TR/2001/REC-SVG-20010904/DTD/svg10.dtd">
<svg version="1.0" xmlns="http://www.w3.org/2000/svg"
 width="500.000000pt" height="500.000000pt" viewBox="0 0 500.000000 500.000000"
 preserveAspectRatio="xMidYMid meet">

<g transform="translate(0.000000,500.000000) scale(0.100000,-0.100000)"
fill="#000000" stroke="none">
<path d="M857 4984 c-113 -20 -219 -58 -316 -112 -239 -134 -410 -358 -484
-635 l-22 -82 0 -1650 0 -1650 22 -87 c49 -192 126 -329 263 -468 153 -155
328 -247 544 -285 77 -13 289 -15 1666 -15 1729 0 1659 -2 1838 59 104 36 248
122 331 198 117 105 229 278 280 431 21 61 21 72 21 1810 l0 1748 -24 72
c-120 351 -414 603 -780 667 -77 13 -287 15 -1675 14 -1322 -1 -1599 -3 -1664
-15z m3343 -1284 l0 -90 -135 0 -135 0 0 90 0 90 135 0 135 0 0 -90z m440
-395 l0 -485 -130 0 -130 0 0 485 0 485 130 0 130 0 0 -485z m-3409 419 c130
-39 199 -133 199 -273 -1 -102 -49 -185 -134 -228 -17 -8 -33 -17 -34 -19 -2
-1 38 -80 88 -176 51 -95 97 -181 102 -190 8 -17 -2 -18 -157 -18 l-166 0 -81
165 -81 165 -53 0 -54 0 0 -165 0 -165 -150 0 -150 0 0 460 0 460 308 0 c254
0 318 -3 363 -16z m1529 -89 l0 -105 75 0 75 0 0 -95 0 -95 -75 0 -75 0 0
-147 c0 -190 4 -197 88 -201 l63 -3 -3 -81 c-3 -81 -3 -82 -33 -91 -16 -4 -75
-9 -130 -10 -89 -1 -107 2 -150 23 -93 47 -104 83 -105 338 l0 172 -45 0 -45
0 0 95 0 95 53 0 54 0 28 105 28 105 98 0 99 0 0 -105z m-718 -106 c164 -35
255 -143 266 -316 l5 -83 -268 0 -267 0 7 -37 c16 -86 56 -117 148 -116 59 1
98 26 112 71 l9 32 129 0 130 0 -7 -47 c-12 -87 -71 -157 -166 -197 -53 -21
-195 -38 -264 -31 -189 20 -303 98 -343 234 -22 79 -15 239 16 306 40 89 116
151 221 179 67 18 200 20 272 5z m1496 -4 c102 -24 157 -59 190 -120 13 -24
18 -71 22 -220 l5 -190 40 -5 40 -5 0 -80 0 -80 -55 -13 c-100 -23 -218 1
-260 55 l-19 24 -38 -25 c-147 -97 -389 -78 -450 36 -12 22 -18 56 -18 103 0
58 5 78 27 116 49 83 177 128 371 129 l87 0 0 29 c0 43 -9 60 -41 76 -57 30
-142 14 -159 -30 -9 -25 -10 -25 -135 -25 -105 0 -127 3 -132 16 -9 23 14 89
43 123 29 35 112 78 174 90 73 14 240 12 308 -4z m662 -350 l0 -355 -135 0
-135 0 0 348 c0 192 3 352 7 355 3 4 64 7 135 7 l128 0 0 -355z m-2091 -655
c46 -23 69 -55 84 -121 l12 -49 465 0 c308 0 478 -4 505 -11 24 -7 55 -27 77
-50 62 -65 61 -83 -26 -415 -87 -330 -88 -333 -124 -367 -57 -55 -73 -57 -436
-57 l-334 0 -31 -35 c-65 -74 -60 -75 329 -75 376 0 380 -1 380 -65 0 -25 -7
-39 -27 -55 -26 -21 -33 -21 -377 -18 -333 3 -353 4 -386 24 -67 39 -100 118
-80 192 5 22 28 60 50 85 22 25 40 50 40 57 0 13 -156 748 -170 801 l-10 36
-77 5 c-64 4 -80 9 -95 28 -33 40 -14 103 35 114 44 9 158 -4 196 -24z m-677
-210 c48 -14 97 -55 114 -97 9 -22 14 -75 14 -162 l0 -129 -28 -24 -28 -23 28
-27 c28 -26 28 -26 28 -158 0 -93 -4 -139 -14 -158 -19 -36 -65 -78 -99 -91
-18 -7 -161 -11 -398 -11 l-369 0 0 90 0 90 355 0 355 0 0 85 0 85 -355 0
-355 0 0 90 0 90 353 2 352 3 3 88 3 87 -356 0 -355 0 0 90 0 90 358 0 c215 0
372 -4 394 -10z m2941 -4 c48 -18 74 -41 98 -88 17 -34 19 -63 19 -345 0 -346
-1 -349 -73 -407 l-39 -31 -315 -3 c-304 -3 -316 -2 -359 19 -31 15 -52 35
-72 67 l-27 47 0 300 c0 165 3 312 7 327 12 40 57 89 103 109 36 17 70 19 330
18 219 0 299 -3 328 -13z"/>
<path d="M860 3445 l0 -85 110 0 c104 0 112 1 135 25 17 16 25 35 25 60 0 25
-8 44 -25 60 -23 24 -31 25 -135 25 l-110 0 0 -85z"/>
<path d="M1843 3350 c-35 -21 -53 -48 -53 -79 0 -20 5 -21 125 -21 l125 0 0
26 c0 16 -13 39 -34 60 -29 29 -41 34 -82 34 -31 0 -61 -7 -81 -20z"/>
<path d="M3385 3120 c-99 -14 -143 -58 -117 -115 22 -48 134 -45 184 5 23 23
28 37 28 74 0 51 3 51 -95 36z"/>
<path d="M2245 2168 c4 -18 32 -152 63 -298 l57 -265 317 -3 c294 -2 318 -1
326 15 18 33 153 556 148 570 -4 11 -89 13 -461 13 l-456 0 6 -32z"/>
<path d="M3780 1875 l0 -265 265 0 265 0 0 265 0 265 -265 0 -265 0 0 -265z
m358 -2 l-3 -88 -87 -3 -88 -3 0 91 0 90 90 0 91 0 -3 -87z"/>
</g>
</svg>
